<?xml version="1.0" encoding="UTF-8" standalone="no"?>
<!-- Created with Inkscape (http://www.inkscape.org/) -->

<svg
   xmlns:dc="http://purl.org/dc/elements/1.1/"
   xmlns:cc="http://creativecommons.org/ns#"
   xmlns:rdf="http://www.w3.org/1999/02/22-rdf-syntax-ns#"
   xmlns:svg="http://www.w3.org/2000/svg"
   xmlns="http://www.w3.org/2000/svg"
   xmlns:sodipodi="http://sodipodi.sourceforge.net/DTD/sodipodi-0.dtd"
   xmlns:inkscape="http://www.inkscape.org/namespaces/inkscape"
   width="210mm"
   height="297mm"
   viewBox="0 0 210 297"
   version="1.1"
   id="svg8"
   sodipodi:docname="drawing.svg"
   inkscape:version="0.92.3 (2405546, 2018-03-11)">
  <defs
     id="defs2" />
  <sodipodi:namedview
     id="base"
     pagecolor="#ffffff"
     bordercolor="#666666"
     borderopacity="1.0"
     inkscape:pageopacity="0.0"
     inkscape:pageshadow="2"
     inkscape:zoom="0.7"
     inkscape:cx="656.70397"
     inkscape:cy="659.04425"
     inkscape:document-units="mm"
     inkscape:current-layer="layer1"
     showgrid="false"
     inkscape:window-width="1920"
     inkscape:window-height="1017"
     inkscape:window-x="-8"
     inkscape:window-y="-8"
     inkscape:window-maximized="1" />
  <metadata
     id="metadata5">
    <rdf:RDF>
      <cc:Work
         rdf:about="">
        <dc:format>image/svg+xml</dc:format>
        <dc:type
           rdf:resource="http://purl.org/dc/dcmitype/StillImage" />
        <dc:title></dc:title>
      </cc:Work>
    </rdf:RDF>
  </metadata>
  <g
     inkscape:label="Layer 1"
     inkscape:groupmode="layer"
     id="layer1">
    <path
       style="fill:#0b280b;fill-opacity:1;stroke-width:0.26458332"
       d="M 104.93432,48.988585 A 75.973211,75.217262 0 0 0 28.961181,124.2057 75.973211,75.217262 0 0 0 104.93432,199.42281 75.973211,75.217262 0 0 0 180.90746,124.2057 75.973211,75.217262 0 0 0 104.93432,48.988585 Z m 0.29145,9.891903 a 65.549697,64.793746 0 0 1 65.55001,64.793462 65.549697,64.793746 0 0 1 -65.55001,64.79398 65.549697,64.793746 0 0 1 -65.54948,-64.79398 65.549697,64.793746 0 0 1 65.54948,-64.793462 z"
       id="path3713"
       inkscape:connector-curvature="0" />
    <path
       style="fill:#ff5555;fill-opacity:1;stroke-width:0.26458332"
       d="M 104.93432,48.988585 A 75.973212,75.217263 0 0 0 28.96118,124.2057 75.973212,75.217263 0 0 0 104.93432,199.42282 75.973212,75.217263 0 0 0 180.90746,124.2057 75.973212,75.217263 0 0 0 104.93432,48.988585 Z m 0.29145,9.891903 a 65.549698,64.793746 0 0 1 65.55001,64.793462 65.549698,64.793746 0 0 1 -65.55001,64.79399 65.549698,64.793746 0 0 1 -65.549481,-64.79399 65.549698,64.793746 0 0 1 65.549481,-64.793462 z"
       id="path3713-5"
       inkscape:connector-curvature="0" />
    <path
       style="fill:none;fill-rule:evenodd;stroke:#000000;stroke-width:0.26458332px;stroke-linecap:butt;stroke-linejoin:miter;stroke-opacity:1"
       d="m 157.80506,161.68452 8.50446,6.80357"
       id="path3766"
       inkscape:connector-curvature="0" />
    <path
       style="fill:none;fill-rule:evenodd;stroke:#000000;stroke-width:0.26458332px;stroke-linecap:butt;stroke-linejoin:miter;stroke-opacity:1"
       d="m 166.30952,168.48809 c 32.81835,-43.1789 9.83207,-116.272838 -61.3752,-119.499505"
       id="path3768"
       inkscape:connector-curvature="0"
       sodipodi:nodetypes="cc" />
    <path
       style="fill:none;fill-rule:evenodd;stroke:#000000;stroke-width:0.26458332px;stroke-linecap:butt;stroke-linejoin:miter;stroke-opacity:1"
       d="m 104.93432,48.988585 0.79415,10.033996 c 49.32967,-1.192408 86.08728,56.994299 52.57929,102.804029"
       id="path3770"
       inkscape:connector-curvature="0"
       sodipodi:nodetypes="ccc" />
    <path
       style="fill:#241c1c;fill-opacity:1;stroke-width:0.71428573"
       d="m 613.08307,623.46445 -14.75452,-11.8363 5.18892,-7.59926 c 21.76305,-31.87239 35.34311,-68.12159 40.84516,-109.02783 1.72656,-12.83643 1.73211,-42.67632 0.0104,-55.71429 C 636.88396,382.5756 612.66002,333.54989 572.02696,292.869 527.4338,248.22334 458.0306,221.84259 398.4203,221.78714 v 0 l -0.49184,-17.59713 c -0.27051,-9.67843 -0.33548,-17.75349 -0.14439,-17.94458 0.45391,-0.45391 22.24066,-1.47806 32.72684,-0.14851 57.24697,7.25833 107.63751,29.18858 148.06727,61.47868 31.91092,25.48634 61.7271,63.44267 79.86743,101.08392 13.90711,28.85732 18.8822,55.28572 23.06256,89.56332 1.56915,12.86655 3.81089,46.82693 2.40683,59.27859 -4.93707,43.78314 -19.83955,82.26406 -41.20908,117.0625 -5.46617,8.90119 -13.73497,20.80966 -14.41909,20.76592 -0.24708,-0.0158 -7.08877,-5.35506 -15.20376,-11.86503 z"
       id="path3772"
       inkscape:connector-curvature="0"
       transform="scale(0.26458333)"
       sodipodi:nodetypes="ccsscsccsssssscsccc" />
  </g>
</svg>
