<?xml version="1.0" encoding="UTF-8" standalone="no"?>
<!-- Created with Inkscape (http://www.inkscape.org/) -->

<svg
   xmlns:dc="http://purl.org/dc/elements/1.1/"
   xmlns:cc="http://creativecommons.org/ns#"
   xmlns:rdf="http://www.w3.org/1999/02/22-rdf-syntax-ns#"
   xmlns:svg="http://www.w3.org/2000/svg"
   xmlns="http://www.w3.org/2000/svg"
   xmlns:sodipodi="http://sodipodi.sourceforge.net/DTD/sodipodi-0.dtd"
   xmlns:inkscape="http://www.inkscape.org/namespaces/inkscape"
   width="210mm"
   height="160mm"
   viewBox="0 0 210 160"
   version="1.1"
   id="svg3105"
   inkscape:version="0.92.3 (2405546, 2018-03-11)"
   sodipodi:docname="final_logo_dark.svg">
  <defs
     id="defs3099" />
  <sodipodi:namedview
     id="base"
     pagecolor="#21252b"
     bordercolor="#666666"
     borderopacity="1.0"
     inkscape:pageopacity="0"
     inkscape:pageshadow="2"
     inkscape:zoom="0.98994949"
     inkscape:cx="368.49664"
     inkscape:cy="308.81981"
     inkscape:document-units="mm"
     inkscape:current-layer="layer1"
     showgrid="false"
     inkscape:window-width="1920"
     inkscape:window-height="1027"
     inkscape:window-x="-8"
     inkscape:window-y="-8"
     inkscape:window-maximized="1" />
  <metadata
     id="metadata3102">
    <rdf:RDF>
      <cc:Work
         rdf:about="">
        <dc:format>image/svg+xml</dc:format>
        <dc:type
           rdf:resource="http://purl.org/dc/dcmitype/StillImage" />
        <dc:title></dc:title>
      </cc:Work>
    </rdf:RDF>
  </metadata>
  <g
     inkscape:label="Layer 1"
     inkscape:groupmode="layer"
     id="layer1"
     transform="translate(0,-137)">
    <rect
       style="fill:#878d99;fill-opacity:1;stroke:#363636;stroke-width:0.23893635;stroke-miterlimit:4;stroke-dasharray:none;stroke-dashoffset:0;stroke-opacity:0"
       id="rect836-25"
       width="13.162952"
       height="70.432487"
       x="146.5961"
       y="82.684349"
       ry="0"
       transform="matrix(0.73974405,0.67288836,-0.64333152,0.76558772,0,0)" />
    <rect
       style="fill:#878d99;fill-opacity:1;stroke:#363636;stroke-width:0.23893586;stroke-miterlimit:4;stroke-dasharray:none;stroke-dashoffset:0;stroke-opacity:0"
       id="rect836-2-1"
       width="13.237547"
       height="70.035309"
       x="-167.68758"
       y="145.14093"
       ry="0"
       transform="matrix(0.63625735,-0.77147689,0.74597606,0.66597276,0,0)" />
    <rect
       style="fill:#878d99;fill-opacity:1;stroke:#363636;stroke-width:0.23893724;stroke-miterlimit:4;stroke-dasharray:none;stroke-dashoffset:0;stroke-opacity:0"
       id="rect836-27-1"
       width="13.174144"
       height="70.373184"
       x="-295.19641"
       y="-91.77726"
       ry="0"
       transform="matrix(-0.72505401,-0.68869201,0.65955612,-0.75165533,0,0)" />
    <rect
       style="fill:#878d99;fill-opacity:1;stroke:#363636;stroke-width:0.2389369;stroke-miterlimit:4;stroke-dasharray:none;stroke-dashoffset:0;stroke-opacity:0"
       id="rect836-2-3-1"
       width="13.226434"
       height="70.094757"
       x="11.011186"
       y="-294.86295"
       ry="0"
       transform="matrix(-0.65259787,0.75770444,-0.7314229,-0.68192415,0,0)" />
    <rect
       style="fill:#dddddd;fill-opacity:1;stroke:#363636;stroke-width:0.23893663;stroke-miterlimit:4;stroke-dasharray:none;stroke-dashoffset:0;stroke-opacity:0"
       id="rect883-2"
       width="8.9190226"
       height="107.1168"
       x="166.10806"
       y="36.478073"
       transform="matrix(0.73554132,0.67747986,-0.64803684,0.76160899,0,0)" />
    <rect
       style="fill:#dddddd;fill-opacity:1;stroke:#363636;stroke-width:0.23893657;stroke-miterlimit:4;stroke-dasharray:none;stroke-dashoffset:0;stroke-opacity:0"
       id="rect883-5-5"
       width="8.918499"
       height="107.12302"
       x="265.02176"
       y="36.370838"
       transform="matrix(0.73655111,0.67638189,-0.64691102,0.7625655,0,0)" />
    <g
       aria-label="R"
       transform="matrix(1.0476126,0,0,0.95455131,-0.48490444,0.00435877)"
       style="font-style:normal;font-weight:normal;font-size:85.73181152px;line-height:125%;font-family:sans-serif;letter-spacing:0px;word-spacing:0px;fill:#dddddd;fill-opacity:1;stroke:#363636;stroke-width:2.14329505px;stroke-linecap:butt;stroke-linejoin:miter;stroke-opacity:0"
       id="text958">
      <path
         inkscape:connector-curvature="0"
         d="m 108.03344,225.39394 q 2.72098,0.92095 5.27451,3.93496 2.5954,3.01401 5.1908,8.28852 l 8.58155,17.07939 h -9.08389 l -7.99549,-16.03286 q -3.09773,-6.27918 -6.02802,-8.33038 -2.88843,-2.0512 -7.911775,-2.0512 h -9.209472 v 26.41444 h -8.45597 v -62.49883 h 19.088724 q 10.716473,0 15.990993,4.47915 5.27452,4.47916 5.27452,13.52118 0,5.90244 -2.76285,9.79553 -2.72098,3.8931 -7.95363,5.4001 z M 86.851653,199.14695 v 22.18645 h 10.632754 q 6.111743,0 9.209473,-2.8047 3.13959,-2.84656 3.13959,-8.33039 0,-5.48382 -3.13959,-8.24666 -3.09773,-2.8047 -9.209473,-2.8047 z"
         style="fill:#dddddd;fill-opacity:1;stroke:#363636;stroke-width:2.14329505px;stroke-opacity:0"
         id="path2435" />
    </g>
  </g>
</svg>
