<?xml version="1.0" encoding="UTF-8" standalone="no"?>
<!-- Created with Inkscape (http://www.inkscape.org/) -->

<svg
   xmlns:dc="http://purl.org/dc/elements/1.1/"
   xmlns:cc="http://creativecommons.org/ns#"
   xmlns:rdf="http://www.w3.org/1999/02/22-rdf-syntax-ns#"
   xmlns:svg="http://www.w3.org/2000/svg"
   xmlns="http://www.w3.org/2000/svg"
   xmlns:sodipodi="http://sodipodi.sourceforge.net/DTD/sodipodi-0.dtd"
   xmlns:inkscape="http://www.inkscape.org/namespaces/inkscape"
   width="207.23512mm"
   height="148.69075mm"
   viewBox="0 0 207.23512 148.69075"
   version="1.1"
   id="svg8"
   inkscape:version="0.92.3 (2405546, 2018-03-11)"
   sodipodi:docname="personal_logo.svg">
  <defs
     id="defs2" />
  <sodipodi:namedview
     id="base"
     pagecolor="#ffffff"
     bordercolor="#666666"
     borderopacity="1.0"
     inkscape:pageopacity="0.0"
     inkscape:pageshadow="2"
     inkscape:zoom="0.24748737"
     inkscape:cx="1475.14"
     inkscape:cy="1026.0214"
     inkscape:document-units="mm"
     inkscape:current-layer="layer1"
     showgrid="false"
     inkscape:window-width="1920"
     inkscape:window-height="1027"
     inkscape:window-x="-8"
     inkscape:window-y="-8"
     inkscape:window-maximized="1" />
  <metadata
     id="metadata5">
    <rdf:RDF>
      <cc:Work
         rdf:about="">
        <dc:format>image/svg+xml</dc:format>
        <dc:type
           rdf:resource="http://purl.org/dc/dcmitype/StillImage" />
        <dc:title />
      </cc:Work>
    </rdf:RDF>
  </metadata>
  <g
     inkscape:label="Layer 1"
     inkscape:groupmode="layer"
     id="layer1"
     transform="translate(1792.761,327.22949)">
    <rect
       style="fill:#ffffff;fill-opacity:1;stroke:#000000;stroke-width:0.29226491;stroke-miterlimit:4;stroke-dasharray:none;stroke-dashoffset:0;stroke-opacity:1"
       id="rect815"
       width="267.92407"
       height="191.51266"
       x="-602.49591"
       y="-202.0157"
       ry="0.010971642" />
    <rect
       style="fill:#232323;fill-opacity:1;stroke:#000000;stroke-width:0.30000001;stroke-miterlimit:4;stroke-dasharray:none;stroke-dashoffset:0;stroke-opacity:1"
       id="rect836"
       width="16.570707"
       height="88.198944"
       x="-937.42957"
       y="624.89948"
       ry="0"
       transform="rotate(41.162563)" />
    <rect
       style="fill:#232323;fill-opacity:1;stroke:#000000;stroke-width:0.30000001;stroke-miterlimit:4;stroke-dasharray:none;stroke-dashoffset:0;stroke-opacity:1"
       id="rect836-2"
       width="16.570707"
       height="88.198944"
       x="-720.85254"
       y="-943.97638"
       ry="0"
       transform="rotate(-49.368226)" />
    <rect
       style="fill:#232323;fill-opacity:1;stroke:#000000;stroke-width:0.30000001;stroke-miterlimit:4;stroke-dasharray:none;stroke-dashoffset:0;stroke-opacity:1"
       id="rect836-27"
       width="16.570707"
       height="88.198944"
       x="739.20721"
       y="-660.38092"
       ry="0"
       transform="rotate(-137.60569)" />
    <rect
       style="fill:#232323;fill-opacity:1;stroke:#000000;stroke-width:0.30000001;stroke-miterlimit:4;stroke-dasharray:none;stroke-dashoffset:0;stroke-opacity:1"
       id="rect836-2-3"
       width="16.570707"
       height="88.198944"
       x="548.84064"
       y="744.49506"
       ry="0"
       transform="rotate(131.86353)" />
    <text
       xml:space="preserve"
       style="font-style:normal;font-weight:normal;font-size:84.31471252px;line-height:125%;font-family:sans-serif;letter-spacing:0px;word-spacing:0px;fill:#000000;fill-opacity:1;stroke:none;stroke-width:2.10786796px;stroke-linecap:butt;stroke-linejoin:miter;stroke-opacity:1"
       x="-1317.9299"
       y="-32.367188"
       id="text873"
       transform="scale(0.8366832,1.1951955)"><tspan
         sodipodi:role="line"
         id="tspan871"
         x="-1317.9299"
         y="-32.367188"
         style="stroke-width:2.10786796px">RB</tspan></text>
    <rect
       style="fill:#232323;fill-opacity:1;stroke:#000000;stroke-width:0.30000001;stroke-miterlimit:4;stroke-dasharray:none;stroke-dashoffset:0;stroke-opacity:1"
       id="rect883"
       width="11.22532"
       height="134.16931"
       x="-908.75903"
       y="565.33832"
       transform="rotate(41.517681)" />
    <rect
       style="fill:#232323;fill-opacity:1;stroke:#000000;stroke-width:0.30000001;stroke-miterlimit:4;stroke-dasharray:none;stroke-dashoffset:0;stroke-opacity:1"
       id="rect883-5"
       width="11.22532"
       height="134.16931"
       x="-786.21777"
       y="588.83899"
       transform="rotate(41.432561)" />
    <rect
       style="fill:#232323;fill-opacity:1;stroke:#000000;stroke-width:0.30000001;stroke-miterlimit:4;stroke-dasharray:none;stroke-dashoffset:0;stroke-opacity:1"
       id="rect836-25"
       width="16.570707"
       height="88.198944"
       x="-515.67303"
       y="218.69463"
       ry="0"
       transform="rotate(41.162563)" />
    <rect
       style="fill:#232323;fill-opacity:1;stroke:#000000;stroke-width:0.30000001;stroke-miterlimit:4;stroke-dasharray:none;stroke-dashoffset:0;stroke-opacity:1"
       id="rect836-2-1"
       width="16.570707"
       height="88.198944"
       x="-318.5722"
       y="-518.47491"
       ry="0"
       transform="rotate(-49.368226)" />
    <rect
       style="fill:#232323;fill-opacity:1;stroke:#000000;stroke-width:0.30000001;stroke-miterlimit:4;stroke-dasharray:none;stroke-dashoffset:0;stroke-opacity:1"
       id="rect836-27-1"
       width="16.570707"
       height="88.198944"
       x="326.28009"
       y="-245.20367"
       ry="0"
       transform="rotate(-137.60569)" />
    <rect
       style="fill:#232323;fill-opacity:1;stroke:#000000;stroke-width:0.30000001;stroke-miterlimit:4;stroke-dasharray:none;stroke-dashoffset:0;stroke-opacity:1"
       id="rect836-2-3-1"
       width="16.570707"
       height="88.198944"
       x="137.50644"
       y="327.73959"
       ry="0"
       transform="rotate(131.86353)" />
    <rect
       style="fill:#232323;fill-opacity:1;stroke:#000000;stroke-width:0.30000001;stroke-miterlimit:4;stroke-dasharray:none;stroke-dashoffset:0;stroke-opacity:1"
       id="rect883-2"
       width="11.22532"
       height="134.16931"
       x="-490.43359"
       y="165.18169"
       transform="rotate(41.517681)" />
    <rect
       style="fill:#232323;fill-opacity:1;stroke:#000000;stroke-width:0.30000001;stroke-miterlimit:4;stroke-dasharray:none;stroke-dashoffset:0;stroke-opacity:1"
       id="rect883-5-5"
       width="11.22532"
       height="134.16931"
       x="-366.09979"
       y="164.0054"
       transform="rotate(41.432561)" />
    <text
       xml:space="preserve"
       style="font-style:normal;font-weight:normal;font-size:127.9745636px;line-height:125%;font-family:sans-serif;letter-spacing:0px;word-spacing:0px;fill:#000000;fill-opacity:1;stroke:none;stroke-width:3.19936419px;stroke-linecap:butt;stroke-linejoin:miter;stroke-opacity:1"
       x="-430.38943"
       y="274.80231"
       id="text958"
       transform="matrix(0.83059353,0.68208929,-0.64230917,0.67648949,0,0)"><tspan
         sodipodi:role="line"
         id="tspan956"
         x="-430.38943"
         y="274.80231"
         style="stroke-width:3.19936419px">R</tspan></text>
    <rect
       style="fill:#232323;fill-opacity:1;stroke:#000000;stroke-width:0.30000001;stroke-miterlimit:4;stroke-dasharray:none;stroke-dashoffset:0;stroke-opacity:1"
       id="rect836-25-7"
       width="16.570707"
       height="88.198944"
       x="243.47469"
       y="330.05359"
       ry="0"
       transform="rotate(41.162563)" />
    <rect
       style="fill:#232323;fill-opacity:1;stroke:#000000;stroke-width:0.30000001;stroke-miterlimit:4;stroke-dasharray:none;stroke-dashoffset:0;stroke-opacity:1"
       id="rect836-2-1-0"
       width="16.570707"
       height="88.198944"
       x="-436.95908"
       y="239.60864"
       ry="0"
       transform="rotate(-49.368226)" />
    <rect
       style="fill:#232323;fill-opacity:1;stroke:#000000;stroke-width:0.30000001;stroke-miterlimit:4;stroke-dasharray:none;stroke-dashoffset:0;stroke-opacity:1"
       id="rect836-27-1-1"
       width="16.570707"
       height="88.198944"
       x="-344.3624"
       y="-338.35944"
       ry="0"
       transform="rotate(-137.60569)" />
    <rect
       style="fill:#232323;fill-opacity:1;stroke:#000000;stroke-width:0.30000001;stroke-miterlimit:4;stroke-dasharray:none;stroke-dashoffset:0;stroke-opacity:1"
       id="rect883-2-8"
       width="11.22532"
       height="134.16931"
       x="269.38977"
       y="271.8334"
       transform="rotate(41.517681)" />
    <rect
       style="fill:#232323;fill-opacity:1;stroke:#000000;stroke-width:0.30000001;stroke-miterlimit:4;stroke-dasharray:none;stroke-dashoffset:0;stroke-opacity:1"
       id="rect883-5-5-5"
       width="11.22532"
       height="134.16931"
       x="302.88467"
       y="268.40472"
       transform="rotate(41.432561)" />
    <rect
       style="fill:#232323;fill-opacity:1;stroke:#000000;stroke-width:0.30000001;stroke-miterlimit:4;stroke-dasharray:none;stroke-dashoffset:0;stroke-opacity:1"
       id="rect836-2-3-1-4"
       width="16.570707"
       height="88.198944"
       x="236.76913"
       y="-342.03021"
       ry="0"
       transform="rotate(131.86353)" />
    <rect
       style="fill:#232323;fill-opacity:1;stroke:#000000;stroke-width:0.30000001;stroke-miterlimit:4;stroke-dasharray:none;stroke-dashoffset:0;stroke-opacity:1"
       id="rect836-25-5"
       width="16.570707"
       height="88.198944"
       x="-466.03894"
       y="816.14276"
       ry="0"
       transform="rotate(41.162563)" />
    <rect
       style="fill:#232323;fill-opacity:1;stroke:#000000;stroke-width:0.30000001;stroke-miterlimit:4;stroke-dasharray:none;stroke-dashoffset:0;stroke-opacity:1"
       id="rect836-2-1-6"
       width="16.570707"
       height="88.198944"
       x="-916.45447"
       y="-474.37762"
       ry="0"
       transform="rotate(-49.368226)" />
    <rect
       style="fill:#232323;fill-opacity:1;stroke:#000000;stroke-width:0.30000001;stroke-miterlimit:4;stroke-dasharray:none;stroke-dashoffset:0;stroke-opacity:1"
       id="rect836-27-1-8"
       width="16.570707"
       height="88.198944"
       x="263.81451"
       y="-841.44678"
       ry="0"
       transform="rotate(-137.60569)" />
    <rect
       style="fill:#232323;fill-opacity:1;stroke:#000000;stroke-width:0.30000001;stroke-miterlimit:4;stroke-dasharray:none;stroke-dashoffset:0;stroke-opacity:1"
       id="rect836-2-3-1-6"
       width="16.570707"
       height="88.198944"
       x="734.30261"
       y="270.80011"
       ry="0"
       transform="rotate(131.86353)" />
    <rect
       style="fill:#232323;fill-opacity:1;stroke:#000000;stroke-width:0.30000001;stroke-miterlimit:4;stroke-dasharray:none;stroke-dashoffset:0;stroke-opacity:1"
       id="rect883-2-7"
       width="11.22532"
       height="134.16931"
       x="-437.0975"
       y="762.31073"
       transform="rotate(41.517681)" />
    <rect
       style="fill:#232323;fill-opacity:1;stroke:#000000;stroke-width:0.30000001;stroke-miterlimit:4;stroke-dasharray:none;stroke-dashoffset:0;stroke-opacity:1"
       id="rect883-5-5-7"
       width="11.22532"
       height="134.16931"
       x="-313.65088"
       y="761.21301"
       transform="rotate(41.432561)" />
    <text
       xml:space="preserve"
       style="font-style:normal;font-weight:normal;font-size:98.14693451px;line-height:125%;font-family:sans-serif;letter-spacing:0px;word-spacing:0px;fill:#000000;fill-opacity:1;stroke:none;stroke-width:2.45367336px;stroke-linecap:butt;stroke-linejoin:miter;stroke-opacity:1"
       x="-813.91162"
       y="442.53217"
       id="text1040"
       transform="scale(1.0756964,0.92963034)"><tspan
         sodipodi:role="line"
         id="tspan1038"
         x="-813.91162"
         y="442.53217"
         style="stroke-width:2.45367336px">W</tspan></text>
    <rect
       style="fill:#232323;fill-opacity:1;stroke:#000000;stroke-width:0.30000001;stroke-miterlimit:4;stroke-dasharray:none;stroke-dashoffset:0;stroke-opacity:1"
       id="rect883-2-9"
       width="11.22532"
       height="134.16931"
       x="109.88118"
       y="635.0376"
       transform="rotate(41.517681)" />
    <rect
       style="fill:#232323;fill-opacity:1;stroke:#000000;stroke-width:0.45767093;stroke-miterlimit:4;stroke-dasharray:none;stroke-dashoffset:0;stroke-opacity:1"
       id="rect883-5-5-56"
       width="17.099453"
       height="204.99054"
       x="235.08504"
       y="572.39532"
       transform="matrix(0.74177442,0.67064946,-0.65275914,0.75756552,0,0)" />
    <text
       xml:space="preserve"
       style="font-style:normal;font-weight:normal;font-size:107.68333435px;line-height:125%;font-family:sans-serif;letter-spacing:0px;word-spacing:0px;fill:#000000;fill-opacity:1;stroke:none;stroke-width:2.69208312px;stroke-linecap:butt;stroke-linejoin:miter;stroke-opacity:1"
       x="-347.7547"
       y="721.20355"
       id="text958-7"
       transform="scale(1.0685778,0.93582329)"><tspan
         sodipodi:role="line"
         id="tspan956-3"
         x="-347.7547"
         y="721.20355"
         style="stroke-width:2.69208312px">R</tspan></text>
    <rect
       style="fill:#232323;fill-opacity:1;stroke:#000000;stroke-width:0.30000001;stroke-miterlimit:4;stroke-dasharray:none;stroke-dashoffset:0;stroke-opacity:1"
       id="rect883-5-5-56-9-8"
       width="11.22532"
       height="134.16931"
       x="759.4212"
       y="-272.79819"
       transform="rotate(133.53594)" />
    <rect
       style="fill:#232323;fill-opacity:1;stroke:#000000;stroke-width:0.30000001;stroke-miterlimit:4;stroke-dasharray:none;stroke-dashoffset:0;stroke-opacity:1"
       id="rect883-5-5-56-9-8-5"
       width="11.22532"
       height="134.16931"
       x="619.54852"
       y="-266.34708"
       transform="rotate(133.53594)" />
    <rect
       style="fill:#000000;fill-opacity:1;stroke:#000000;stroke-width:0.29226491;stroke-miterlimit:4;stroke-dasharray:none;stroke-dashoffset:0;stroke-opacity:1"
       id="rect815-8"
       width="267.92407"
       height="191.51266"
       x="-291.5256"
       y="-201.46834"
       ry="0.010971643" />
    <rect
       style="fill:#ffffff;fill-opacity:1;stroke:#000000;stroke-width:0.30000001;stroke-miterlimit:4;stroke-dasharray:none;stroke-dashoffset:0;stroke-opacity:1"
       id="rect836-25-50"
       width="16.570707"
       height="88.198944"
       x="-281.20029"
       y="14.42678"
       ry="0"
       transform="rotate(41.162563)" />
    <rect
       style="fill:#ffffff;fill-opacity:1;stroke:#000000;stroke-width:0.30000001;stroke-miterlimit:4;stroke-dasharray:none;stroke-dashoffset:0;stroke-opacity:1"
       id="rect836-2-1-7"
       width="16.570707"
       height="88.198944"
       x="-116.48524"
       y="-282.1199"
       ry="0"
       transform="rotate(-49.368226)" />
    <rect
       style="fill:#ffffff;fill-opacity:1;stroke:#000000;stroke-width:0.30000001;stroke-miterlimit:4;stroke-dasharray:none;stroke-dashoffset:0;stroke-opacity:1"
       id="rect836-27-1-7"
       width="16.570707"
       height="88.198944"
       x="96.252556"
       y="-35.942707"
       ry="0"
       transform="rotate(-137.60569)" />
    <rect
       style="fill:#ffffff;fill-opacity:1;stroke:#000000;stroke-width:0.30000001;stroke-miterlimit:4;stroke-dasharray:none;stroke-dashoffset:0;stroke-opacity:1"
       id="rect836-2-3-1-3"
       width="16.570707"
       height="88.198944"
       x="-69.614616"
       y="95.783394"
       ry="0"
       transform="rotate(131.86353)" />
    <rect
       style="fill:#ffffff;fill-opacity:1;stroke:#000000;stroke-width:0.30000001;stroke-miterlimit:4;stroke-dasharray:none;stroke-dashoffset:0;stroke-opacity:1"
       id="rect883-2-3"
       width="11.22532"
       height="134.16931"
       x="-257.23141"
       y="-40.535458"
       transform="rotate(41.517681)" />
    <rect
       style="fill:#ffffff;fill-opacity:1;stroke:#000000;stroke-width:0.30000001;stroke-miterlimit:4;stroke-dasharray:none;stroke-dashoffset:0;stroke-opacity:1"
       id="rect883-5-5-0"
       width="11.22532"
       height="134.16931"
       x="-132.59225"
       y="-41.365093"
       transform="rotate(41.432561)" />
    <text
       xml:space="preserve"
       style="font-style:normal;font-weight:normal;font-size:107.68333435px;line-height:125%;font-family:sans-serif;letter-spacing:0px;word-spacing:0px;fill:#ffffff;fill-opacity:1;stroke:none;stroke-width:2.69208312px;stroke-linecap:butt;stroke-linejoin:miter;stroke-opacity:1"
       x="-185.92432"
       y="-79.350464"
       id="text958-4"
       transform="scale(1.0685778,0.93582329)"><tspan
         sodipodi:role="line"
         id="tspan956-9"
         x="-185.92432"
         y="-79.350464"
         style="fill:#ffffff;stroke-width:2.69208312px">R</tspan></text>
    <rect
       style="fill:#ffffff;fill-opacity:1;stroke:#000000;stroke-width:0.29226491;stroke-miterlimit:4;stroke-dasharray:none;stroke-dashoffset:0;stroke-opacity:1"
       id="rect815-1"
       width="267.92407"
       height="191.51266"
       x="-622.53076"
       y="115.71742"
       ry="0.010971643" />
    <rect
       style="fill:#232323;fill-opacity:1;stroke:#000000;stroke-width:0.30000001;stroke-miterlimit:4;stroke-dasharray:none;stroke-dashoffset:0;stroke-opacity:1"
       id="rect836-25-8"
       width="16.570707"
       height="88.198944"
       x="-321.62494"
       y="471.08533"
       ry="0"
       transform="rotate(41.162563)" />
    <rect
       style="fill:#232323;fill-opacity:1;stroke:#000000;stroke-width:0.30000001;stroke-miterlimit:4;stroke-dasharray:none;stroke-dashoffset:0;stroke-opacity:1"
       id="rect836-2-1-4"
       width="16.570707"
       height="88.198944"
       x="-572.74969"
       y="-326.77325"
       ry="0"
       transform="rotate(-49.368226)" />
    <rect
       style="fill:#232323;fill-opacity:1;stroke:#000000;stroke-width:0.30000001;stroke-miterlimit:4;stroke-dasharray:none;stroke-dashoffset:0;stroke-opacity:1"
       id="rect836-27-1-2"
       width="16.570707"
       height="88.198944"
       x="126.85134"
       y="-493.36472"
       ry="0"
       transform="rotate(-137.60569)" />
    <rect
       style="fill:#232323;fill-opacity:1;stroke:#000000;stroke-width:0.30000001;stroke-miterlimit:4;stroke-dasharray:none;stroke-dashoffset:0;stroke-opacity:1"
       id="rect836-2-3-1-0"
       width="16.570707"
       height="88.198944"
       x="387.5043"
       y="130.6183"
       ry="0"
       transform="rotate(131.86353)" />
    <rect
       style="fill:#232323;fill-opacity:1;stroke:#000000;stroke-width:0.17691503;stroke-miterlimit:4;stroke-dasharray:none;stroke-dashoffset:0;stroke-opacity:1"
       id="rect883-5-5-59"
       width="6.6332641"
       height="78.960808"
       x="-160.84215"
       y="430.81622"
       transform="matrix(0.76038952,0.6494673,-0.67388308,0.73883801,0,0)" />
    <text
       xml:space="preserve"
       style="font-style:normal;font-weight:normal;font-size:107.68333435px;line-height:125%;font-family:sans-serif;letter-spacing:0px;word-spacing:0px;fill:#000000;fill-opacity:1;stroke:none;stroke-width:2.69208312px;stroke-linecap:butt;stroke-linejoin:miter;stroke-opacity:1"
       x="-495.68658"
       y="259.58719"
       id="text958-0"
       transform="scale(1.0685778,0.93582329)"><tspan
         sodipodi:role="line"
         id="tspan956-8"
         x="-495.68658"
         y="259.58719"
         style="stroke-width:2.69208312px">R</tspan></text>
    <rect
       style="fill:#232323;fill-opacity:1;stroke:#000000;stroke-width:0.17691503;stroke-miterlimit:4;stroke-dasharray:none;stroke-dashoffset:0;stroke-opacity:1"
       id="rect883-5-5-59-7"
       width="6.6332641"
       height="78.960808"
       x="-291.8475"
       y="428.33838"
       transform="matrix(0.76879525,0.639495,-0.66418977,0.74756401,0,0)" />
    <rect
       style="fill:#363636;fill-opacity:1;stroke:#363636;stroke-width:0.23893635;stroke-miterlimit:4;stroke-dasharray:none;stroke-dashoffset:0;stroke-opacity:1"
       id="rect836-25-88"
       width="13.162952"
       height="70.432487"
       x="105.12351"
       y="31.400021"
       ry="0"
       transform="matrix(0.73974405,0.67288836,-0.64333152,0.76558772,0,0)" />
    <rect
       style="fill:#363636;fill-opacity:1;stroke:#363636;stroke-width:0.23893586;stroke-miterlimit:4;stroke-dasharray:none;stroke-dashoffset:0;stroke-opacity:1"
       id="rect836-2-1-2"
       width="13.237547"
       height="70.035309"
       x="-116.00057"
       y="104.15768"
       ry="0"
       transform="matrix(0.63625735,-0.77147689,0.74597606,0.66597276,0,0)" />
    <rect
       style="fill:#363636;fill-opacity:1;stroke:#363636;stroke-width:0.23893724;stroke-miterlimit:4;stroke-dasharray:none;stroke-dashoffset:0;stroke-opacity:1"
       id="rect836-27-1-5"
       width="13.174144"
       height="70.373184"
       x="-252.6006"
       y="-41.443451"
       ry="0"
       transform="matrix(-0.72505401,-0.68869201,0.65955612,-0.75165533,0,0)" />
    <rect
       style="fill:#363636;fill-opacity:1;stroke:#363636;stroke-width:0.2389369;stroke-miterlimit:4;stroke-dasharray:none;stroke-dashoffset:0;stroke-opacity:1"
       id="rect836-2-3-1-30"
       width="13.226434"
       height="70.094757"
       x="-39.734913"
       y="-252.74901"
       ry="0"
       transform="matrix(-0.65259787,0.75770444,-0.7314229,-0.68192415,0,0)" />
    <rect
       style="fill:#363636;fill-opacity:1;stroke:#363636;stroke-width:0.23893663;stroke-miterlimit:4;stroke-dasharray:none;stroke-dashoffset:0;stroke-opacity:1"
       id="rect883-2-6"
       width="8.9190226"
       height="107.1168"
       x="124.30988"
       y="-14.534466"
       transform="matrix(0.73554132,0.67747986,-0.64803684,0.76160899,0,0)" />
    <rect
       style="fill:#363636;fill-opacity:1;stroke:#363636;stroke-width:0.23893657;stroke-miterlimit:4;stroke-dasharray:none;stroke-dashoffset:0;stroke-opacity:1"
       id="rect883-5-5-3"
       width="8.918499"
       height="107.12302"
       x="223.3015"
       y="-14.707006"
       transform="matrix(0.73655111,0.67638189,-0.64691102,0.7625655,0,0)" />
    <g
       aria-label="R"
       transform="matrix(1.0476126,0,0,0.95455131,1.8288083,-67.164693)"
       style="font-style:normal;font-weight:normal;font-size:85.73181152px;line-height:125%;font-family:sans-serif;letter-spacing:0px;word-spacing:0px;fill:#363636;fill-opacity:1;stroke:#363636;stroke-width:2.14329505px;stroke-linecap:butt;stroke-linejoin:miter;stroke-opacity:1"
       id="text958-05">
      <path
         inkscape:connector-curvature="0"
         d="m 99.359274,231.69383 c 2.451796,3.55391 2.551666,5.84554 4.636696,8.69487 4.02637,7.9493 4.60859,8.27212 6.97666,11.36846 l 1.56569,2.93965 h -7.93584 c -0.83679,-1.56435 0,0 0,0 l -6.114716,-9.38351 c -2.435863,-2.62745 -4.456541,-6.42652 -6.508599,-9.33106 l -5.637757,-7.97986 0.127561,26.83443 -8.073286,-0.14 v -62.49883 h 19.088724 c 7.144313,0 12.474643,1.49305 15.990993,4.47915 3.51635,2.98611 5.27452,7.49317 5.27452,13.52118 0,3.93496 -1.6148,9.65553 -1.6148,9.65553 -1.68643,6.09534 -14.28742,10.83532 -17.775846,11.83999 z M 86.851653,199.14695 v 22.18645 h 10.632754 c 4.074493,0 7.144323,-0.9349 9.209473,-2.8047 2.09306,-1.89771 3.13959,-4.6745 3.13959,-8.33039 0,-3.65588 -1.04653,-6.40477 -3.13959,-8.24666 -2.06515,-1.8698 -5.13498,-2.8047 -9.209473,-2.8047 z"
         style="fill:#363636;fill-opacity:1;stroke:#363636;stroke-width:2.14329505px;stroke-opacity:1"
         id="path2435"
         sodipodi:nodetypes="cccccccsccccscsccccscscsc" />
    </g>
    <rect
       style="fill:#000000;fill-opacity:1;stroke:#000000;stroke-width:0.17386907;stroke-miterlimit:4;stroke-dasharray:none;stroke-dashoffset:0;stroke-opacity:1"
       id="rect3081"
       width="14.822697"
       height="36.052303"
       x="-11.701687"
       y="179.08821"
       transform="rotate(-35.0803)" />
    <rect
       style="fill:#363636;fill-opacity:1;stroke:#000000;stroke-width:0.30000001;stroke-miterlimit:4;stroke-dasharray:none;stroke-dashoffset:0;stroke-opacity:1"
       id="rect836-25-50-8"
       width="16.570707"
       height="88.198944"
       x="-886.79749"
       y="142.99533"
       ry="0"
       transform="rotate(41.162563)" />
    <rect
       style="fill:#363636;fill-opacity:1;stroke:#000000;stroke-width:0.30000001;stroke-miterlimit:4;stroke-dasharray:none;stroke-dashoffset:0;stroke-opacity:1"
       id="rect836-2-1-7-0"
       width="16.570707"
       height="88.198944"
       x="-239.4381"
       y="-888.8822"
       ry="0"
       transform="rotate(-49.368226)" />
    <rect
       style="fill:#363636;fill-opacity:1;stroke:#000000;stroke-width:0.30000001;stroke-miterlimit:4;stroke-dasharray:none;stroke-dashoffset:0;stroke-opacity:1"
       id="rect836-27-1-7-8"
       width="16.570707"
       height="88.198944"
       x="698.94604"
       y="-177.49971"
       ry="0"
       transform="rotate(-137.60569)" />
    <rect
       style="fill:#363636;fill-opacity:1;stroke:#000000;stroke-width:0.30000001;stroke-miterlimit:4;stroke-dasharray:none;stroke-dashoffset:0;stroke-opacity:1"
       id="rect836-2-3-1-3-2"
       width="16.570707"
       height="88.198944"
       x="66.353127"
       y="699.76239"
       ry="0"
       transform="rotate(131.86353)" />
    <rect
       style="fill:#363636;fill-opacity:1;stroke:#000000;stroke-width:0.30000001;stroke-miterlimit:4;stroke-dasharray:none;stroke-dashoffset:0;stroke-opacity:1"
       id="rect883-2-3-2"
       width="11.22532"
       height="134.16931"
       x="-862.02014"
       y="91.784081"
       transform="rotate(41.517681)" />
    <rect
       style="fill:#363636;fill-opacity:1;stroke:#000000;stroke-width:0.30000001;stroke-miterlimit:4;stroke-dasharray:none;stroke-dashoffset:0;stroke-opacity:1"
       id="rect883-5-5-0-7"
       width="11.22532"
       height="134.16931"
       x="-737.5769"
       y="90.055817"
       transform="rotate(41.432561)" />
    <text
       xml:space="preserve"
       style="font-style:normal;font-weight:normal;font-size:107.68333435px;line-height:125%;font-family:sans-serif;letter-spacing:0px;word-spacing:0px;fill:#68826f;fill-opacity:1;stroke:none;stroke-width:2.69208288px;stroke-linecap:butt;stroke-linejoin:miter;stroke-opacity:1"
       x="-691.77838"
       y="-401.85843"
       id="text958-4-2"
       transform="scale(1.0685778,0.9358233)"><tspan
         sodipodi:role="line"
         id="tspan956-9-5"
         x="-691.77838"
         y="-401.85843"
         style="fill:#68826f;fill-opacity:1;stroke-width:2.69208288px">R</tspan></text>
    <rect
       style="fill:#68826f;fill-opacity:1;stroke:#363636;stroke-width:0.23893635;stroke-miterlimit:4;stroke-dasharray:none;stroke-dashoffset:0;stroke-opacity:1"
       id="rect836-25-3"
       width="13.162952"
       height="70.432487"
       x="-1219.0703"
       y="213.76703"
       ry="0"
       transform="matrix(0.73974405,0.67288836,-0.64333152,0.76558772,0,0)" />
    <rect
       style="fill:#68826f;fill-opacity:1;stroke:#363636;stroke-width:0.23893586;stroke-miterlimit:4;stroke-dasharray:none;stroke-dashoffset:0;stroke-opacity:1"
       id="rect836-2-1-5"
       width="13.237547"
       height="70.035309"
       x="-286.08893"
       y="-1221.1757"
       ry="0"
       transform="matrix(0.63625735,-0.77147689,0.74597606,0.66597276,0,0)" />
    <rect
       style="fill:#68826f;fill-opacity:1;stroke:#363636;stroke-width:0.23893724;stroke-miterlimit:4;stroke-dasharray:none;stroke-dashoffset:0;stroke-opacity:1"
       id="rect836-27-1-10"
       width="13.174144"
       height="70.373184"
       x="1068.5099"
       y="-252.20706"
       ry="0"
       transform="matrix(-0.72505401,-0.68869201,0.65955612,-0.75165533,0,0)" />
    <rect
       style="fill:#68826f;fill-opacity:1;stroke:#363636;stroke-width:0.2389369;stroke-miterlimit:4;stroke-dasharray:none;stroke-dashoffset:0;stroke-opacity:1"
       id="rect836-2-3-1-00"
       width="13.226434"
       height="70.094757"
       x="158.80934"
       y="1069.7655"
       ry="0"
       transform="matrix(-0.65259787,0.75770444,-0.7314229,-0.68192415,0,0)" />
    <rect
       style="fill:#363636;fill-opacity:1;stroke:#363636;stroke-width:0.23893663;stroke-miterlimit:4;stroke-dasharray:none;stroke-dashoffset:0;stroke-opacity:1"
       id="rect883-2-61"
       width="8.9190226"
       height="107.1168"
       x="-1199.058"
       y="176.03365"
       transform="matrix(0.73554132,0.67747986,-0.64803684,0.76160899,0,0)" />
    <rect
       style="fill:#363636;fill-opacity:1;stroke:#363636;stroke-width:0.23893657;stroke-miterlimit:4;stroke-dasharray:none;stroke-dashoffset:0;stroke-opacity:1"
       id="rect883-5-5-4"
       width="8.918499"
       height="107.12302"
       x="-1100.269"
       y="173.89636"
       transform="matrix(0.73655111,0.67638189,-0.64691102,0.7625655,0,0)" />
    <g
       aria-label="R"
       transform="matrix(1.0476126,0,0,0.95455131,-1095.0581,-818.58138)"
       style="font-style:normal;font-weight:normal;font-size:85.73181152px;line-height:125%;font-family:sans-serif;letter-spacing:0px;word-spacing:0px;fill:#363636;fill-opacity:1;stroke:#363636;stroke-width:2.14329505px;stroke-linecap:butt;stroke-linejoin:miter;stroke-opacity:1"
       id="text958-5">
      <path
         inkscape:connector-curvature="0"
         d="m 108.03344,225.39394 q 2.72098,0.92095 5.27451,3.93496 2.5954,3.01401 5.1908,8.28852 l 8.58155,17.07939 h -9.08389 l -7.99549,-16.03286 q -3.09773,-6.27918 -6.02802,-8.33038 -2.88843,-2.0512 -7.911775,-2.0512 h -9.209472 v 26.41444 h -8.45597 v -62.49883 h 19.088724 q 10.716473,0 15.990993,4.47915 5.27452,4.47916 5.27452,13.52118 0,5.90244 -2.76285,9.79553 -2.72098,3.8931 -7.95363,5.4001 z M 86.851653,199.14695 v 22.18645 h 10.632754 q 6.111743,0 9.209473,-2.8047 3.13959,-2.84656 3.13959,-8.33039 0,-5.48382 -3.13959,-8.24666 -3.09773,-2.8047 -9.209473,-2.8047 z"
         style="fill:#363636;fill-opacity:1;stroke:#363636;stroke-width:2.14329505px;stroke-opacity:1"
         id="path2435-7" />
    </g>
    <rect
       style="fill:#363636;fill-opacity:1;stroke:#363636;stroke-width:0.23893635;stroke-miterlimit:4;stroke-dasharray:none;stroke-dashoffset:0;stroke-opacity:1"
       id="rect836-25-3-5"
       width="13.162952"
       height="70.432487"
       x="-1129.8151"
       y="351.12509"
       ry="0"
       transform="matrix(0.73974405,0.67288836,-0.64333152,0.76558772,0,0)" />
    <rect
       style="fill:#363636;fill-opacity:1;stroke:#363636;stroke-width:0.23893586;stroke-miterlimit:4;stroke-dasharray:none;stroke-dashoffset:0;stroke-opacity:1"
       id="rect836-2-1-5-3"
       width="13.237547"
       height="70.035309"
       x="-424.32224"
       y="-1133.2222"
       ry="0"
       transform="matrix(0.63625735,-0.77147689,0.74597606,0.66597276,0,0)" />
    <rect
       style="fill:#363636;fill-opacity:1;stroke:#363636;stroke-width:0.23893724;stroke-miterlimit:4;stroke-dasharray:none;stroke-dashoffset:0;stroke-opacity:1"
       id="rect836-27-1-10-8"
       width="13.174144"
       height="70.373184"
       x="976.25977"
       y="-387.49054"
       ry="0"
       transform="matrix(-0.72505401,-0.68869201,0.65955612,-0.75165533,0,0)" />
    <rect
       style="fill:#363636;fill-opacity:1;stroke:#363636;stroke-width:0.2389369;stroke-miterlimit:4;stroke-dasharray:none;stroke-dashoffset:0;stroke-opacity:1"
       id="rect836-2-3-1-00-6"
       width="13.226434"
       height="70.094757"
       x="294.99417"
       y="978.80139"
       ry="0"
       transform="matrix(-0.65259787,0.75770444,-0.7314229,-0.68192415,0,0)" />
    <rect
       style="fill:#68826f;fill-opacity:1;stroke:#363636;stroke-width:0.23893663;stroke-miterlimit:4;stroke-dasharray:none;stroke-dashoffset:0;stroke-opacity:1"
       id="rect883-2-61-5"
       width="8.9190226"
       height="107.1168"
       x="-1108.9357"
       y="312.7998"
       transform="matrix(0.73554132,0.67747986,-0.64803684,0.76160899,0,0)" />
    <rect
       style="fill:#68826f;fill-opacity:1;stroke:#363636;stroke-width:0.23893657;stroke-miterlimit:4;stroke-dasharray:none;stroke-dashoffset:0;stroke-opacity:1"
       id="rect883-5-5-4-4"
       width="8.918499"
       height="107.12302"
       x="-1010.3542"
       y="310.80481"
       transform="matrix(0.73655111,0.67638189,-0.64691102,0.7625655,0,0)" />
    <g
       aria-label="R"
       transform="matrix(1.0476126,0,0,0.95455131,-1117.3989,-653.36298)"
       style="font-style:normal;font-weight:normal;font-size:85.73181152px;line-height:125%;font-family:sans-serif;letter-spacing:0px;word-spacing:0px;fill:#363636;fill-opacity:1;stroke:#363636;stroke-width:2.14329505px;stroke-linecap:butt;stroke-linejoin:miter;stroke-opacity:1"
       id="text958-5-8">
      <path
         inkscape:connector-curvature="0"
         d="m 108.03344,225.39394 q 2.72098,0.92095 5.27451,3.93496 2.5954,3.01401 5.1908,8.28852 l 8.58155,17.07939 h -9.08389 l -7.99549,-16.03286 q -3.09773,-6.27918 -6.02802,-8.33038 -2.88843,-2.0512 -7.911775,-2.0512 h -9.209472 v 26.41444 h -8.45597 v -62.49883 h 19.088724 q 10.716473,0 15.990993,4.47915 5.27452,4.47916 5.27452,13.52118 0,5.90244 -2.76285,9.79553 -2.72098,3.8931 -7.95363,5.4001 z M 86.851653,199.14695 v 22.18645 h 10.632754 q 6.111743,0 9.209473,-2.8047 3.13959,-2.84656 3.13959,-8.33039 0,-5.48382 -3.13959,-8.24666 -3.09773,-2.8047 -9.209473,-2.8047 z"
         style="fill:#363636;fill-opacity:1;stroke:#363636;stroke-width:2.14329505px;stroke-opacity:1"
         id="path2435-7-8" />
    </g>
    <rect
       style="fill:#363636;fill-opacity:1;stroke:#363636;stroke-width:0.23893635;stroke-miterlimit:4;stroke-dasharray:none;stroke-dashoffset:0;stroke-opacity:1"
       id="rect836-25-51"
       width="13.162952"
       height="70.432487"
       x="-1359.536"
       y="593.95258"
       ry="0"
       transform="matrix(0.73974405,0.67288836,-0.64333152,0.76558772,0,0)" />
    <rect
       style="fill:#363636;fill-opacity:1;stroke:#363636;stroke-width:0.23893586;stroke-miterlimit:4;stroke-dasharray:none;stroke-dashoffset:0;stroke-opacity:1"
       id="rect836-2-1-3"
       width="13.237547"
       height="70.035309"
       x="-665.08685"
       y="-1365.0863"
       ry="0"
       transform="matrix(0.63625735,-0.77147689,0.74597606,0.66597276,0,0)" />
    <rect
       style="fill:#363636;fill-opacity:1;stroke:#363636;stroke-width:0.23893724;stroke-miterlimit:4;stroke-dasharray:none;stroke-dashoffset:0;stroke-opacity:1"
       id="rect836-27-1-50"
       width="13.174144"
       height="70.373184"
       x="1200.9263"
       y="-635.0177"
       ry="0"
       transform="matrix(-0.72505401,-0.68869201,0.65955612,-0.75165533,0,0)" />
    <rect
       style="fill:#363636;fill-opacity:1;stroke:#363636;stroke-width:0.2389369;stroke-miterlimit:4;stroke-dasharray:none;stroke-dashoffset:0;stroke-opacity:1"
       id="rect836-2-3-1-9"
       width="13.226434"
       height="70.094757"
       x="540.51123"
       y="1205.6598"
       ry="0"
       transform="matrix(-0.65259787,0.75770444,-0.7314229,-0.68192415,0,0)" />
    <g
       aria-label="R"
       transform="matrix(1.0476126,0,0,0.95455131,-1443.5522,-622.03375)"
       style="font-style:normal;font-weight:normal;font-size:85.73181152px;line-height:125%;font-family:sans-serif;letter-spacing:0px;word-spacing:0px;fill:#363636;fill-opacity:1;stroke:#363636;stroke-width:2.14329505px;stroke-linecap:butt;stroke-linejoin:miter;stroke-opacity:1"
       id="text958-1">
      <path
         inkscape:connector-curvature="0"
         d="m 108.03344,225.39394 q 2.72098,0.92095 5.27451,3.93496 2.5954,3.01401 5.1908,8.28852 l 8.58155,17.07939 h -9.08389 l -7.99549,-16.03286 q -3.09773,-6.27918 -6.02802,-8.33038 -2.88843,-2.0512 -7.911775,-2.0512 h -9.209472 v 26.41444 h -8.45597 v -62.49883 h 19.088724 q 10.716473,0 15.990993,4.47915 5.27452,4.47916 5.27452,13.52118 0,5.90244 -2.76285,9.79553 -2.72098,3.8931 -7.95363,5.4001 z M 86.851653,199.14695 v 22.18645 h 10.632754 q 6.111743,0 9.209473,-2.8047 3.13959,-2.84656 3.13959,-8.33039 0,-5.48382 -3.13959,-8.24666 -3.09773,-2.8047 -9.209473,-2.8047 z"
         style="fill:#363636;fill-opacity:1;stroke:#363636;stroke-width:2.14329505px;stroke-opacity:1"
         id="path2435-5" />
    </g>
    <rect
       style="fill:#363636;fill-opacity:1;stroke:#363636;stroke-width:0.23893635;stroke-miterlimit:4;stroke-dasharray:none;stroke-dashoffset:0;stroke-opacity:1"
       id="rect836-25-51-8"
       width="13.162952"
       height="70.432487"
       x="-1530.674"
       y="942.93195"
       ry="0"
       transform="matrix(0.73974405,0.67288836,-0.64333152,0.76558772,0,0)" />
    <rect
       style="fill:#363636;fill-opacity:1;stroke:#363636;stroke-width:0.23893586;stroke-miterlimit:4;stroke-dasharray:none;stroke-dashoffset:0;stroke-opacity:1"
       id="rect836-2-1-3-9"
       width="13.237547"
       height="70.035309"
       x="-1012.5829"
       y="-1539.3691"
       ry="0"
       transform="matrix(0.63625735,-0.77147689,0.74597606,0.66597276,0,0)" />
    <rect
       style="fill:#363636;fill-opacity:1;stroke:#363636;stroke-width:0.23893724;stroke-miterlimit:4;stroke-dasharray:none;stroke-dashoffset:0;stroke-opacity:1"
       id="rect836-27-1-50-0"
       width="13.174144"
       height="70.373184"
       x="1364.7015"
       y="-987.31793"
       ry="0"
       transform="matrix(-0.72505401,-0.68869201,0.65955612,-0.75165533,0,0)" />
    <rect
       style="fill:#363636;fill-opacity:1;stroke:#363636;stroke-width:0.2389369;stroke-miterlimit:4;stroke-dasharray:none;stroke-dashoffset:0;stroke-opacity:1"
       id="rect836-2-3-1-9-0"
       width="13.226434"
       height="70.094757"
       x="891.40125"
       y="1372.6185"
       ry="0"
       transform="matrix(-0.65259787,0.75770444,-0.7314229,-0.68192415,0,0)" />
    <rect
       style="fill:#363636;fill-opacity:1;stroke:#363636;stroke-width:0.23893663;stroke-miterlimit:4;stroke-dasharray:none;stroke-dashoffset:0;stroke-opacity:1"
       id="rect883-2-95-8"
       width="8.9190226"
       height="107.1168"
       x="-1500.774"
       y="905.56525"
       transform="matrix(0.73554132,0.67747986,-0.64803684,0.76160899,0,0)" />
    <rect
       style="fill:#363636;fill-opacity:1;stroke:#363636;stroke-width:0.23893657;stroke-miterlimit:4;stroke-dasharray:none;stroke-dashoffset:0;stroke-opacity:1"
       id="rect883-5-5-79-2"
       width="8.918499"
       height="107.12302"
       x="-1412.1533"
       y="903.16656"
       transform="matrix(0.73655111,0.67638189,-0.64691102,0.7625655,0,0)" />
    <g
       aria-label="R"
       transform="matrix(0.90144227,0,0,0.79617969,-1780.7279,-434.06138)"
       style="font-style:normal;font-weight:normal;font-size:85.73181152px;line-height:125%;font-family:sans-serif;letter-spacing:0px;word-spacing:0px;fill:#363636;fill-opacity:1;stroke:#363636;stroke-width:2.14329505px;stroke-linecap:butt;stroke-linejoin:miter;stroke-opacity:1"
       id="text958-1-4">
      <path
         inkscape:connector-curvature="0"
         d="m 108.03344,225.39394 q 2.72098,0.92095 5.27451,3.93496 2.5954,3.01401 5.1908,8.28852 l 8.58155,17.07939 h -9.08389 l -7.99549,-16.03286 q -3.09773,-6.27918 -6.02802,-8.33038 -2.88843,-2.0512 -7.911775,-2.0512 h -9.209472 v 26.41444 h -8.45597 v -62.49883 h 19.088724 q 10.716473,0 15.990993,4.47915 5.27452,4.47916 5.27452,13.52118 0,5.90244 -2.76285,9.79553 -2.72098,3.8931 -7.95363,5.4001 z M 86.851653,199.14695 v 22.18645 h 10.632754 q 6.111743,0 9.209473,-2.8047 3.13959,-2.84656 3.13959,-8.33039 0,-5.48382 -3.13959,-8.24666 -3.09773,-2.8047 -9.209473,-2.8047 z"
         style="fill:#363636;fill-opacity:1;stroke:#363636;stroke-width:2.14329505px;stroke-opacity:1"
         id="path2435-5-6" />
    </g>
    <rect
       style="fill:#68826f;fill-opacity:1;stroke:#363636;stroke-width:0.23893635;stroke-miterlimit:4;stroke-dasharray:none;stroke-dashoffset:0;stroke-opacity:1"
       id="rect836-25-51-84"
       width="13.162952"
       height="70.432487"
       x="-1232.0526"
       y="720.05292"
       ry="0"
       transform="matrix(0.73974405,0.67288836,-0.64333152,0.76558772,0,0)" />
    <rect
       style="fill:#68826f;fill-opacity:1;stroke:#363636;stroke-width:0.23893586;stroke-miterlimit:4;stroke-dasharray:none;stroke-dashoffset:0;stroke-opacity:1"
       id="rect836-2-1-3-5"
       width="13.237547"
       height="70.035309"
       x="-792.41504"
       y="-1238.8167"
       ry="0"
       transform="matrix(0.63625735,-0.77147689,0.74597606,0.66597276,0,0)" />
    <rect
       style="fill:#68826f;fill-opacity:1;stroke:#363636;stroke-width:0.23893724;stroke-miterlimit:4;stroke-dasharray:none;stroke-dashoffset:0;stroke-opacity:1"
       id="rect836-27-1-50-08"
       width="13.174144"
       height="70.373184"
       x="1056.564"
       y="-765.22217"
       ry="0"
       transform="matrix(-0.72505401,-0.68869201,0.65955612,-0.75165533,0,0)" />
    <rect
       style="fill:#68826f;fill-opacity:1;stroke:#363636;stroke-width:0.2389369;stroke-miterlimit:4;stroke-dasharray:none;stroke-dashoffset:0;stroke-opacity:1"
       id="rect836-2-3-1-9-2"
       width="13.226434"
       height="70.094757"
       x="672.1001"
       y="1062.558"
       ry="0"
       transform="matrix(-0.65259787,0.75770444,-0.7314229,-0.68192415,0,0)" />
    <g
       aria-label="R"
       transform="matrix(1.0476126,0,0,0.95455131,-1424.7588,-424.74369)"
       style="font-style:normal;font-weight:normal;font-size:85.73181152px;line-height:125%;font-family:sans-serif;letter-spacing:0px;word-spacing:0px;fill:#363636;fill-opacity:1;stroke:#363636;stroke-width:2.14329505px;stroke-linecap:butt;stroke-linejoin:miter;stroke-opacity:1"
       id="text958-1-6">
      <path
         inkscape:connector-curvature="0"
         d="m 108.03344,225.39394 q 2.72098,0.92095 5.27451,3.93496 2.5954,3.01401 5.1908,8.28852 l 8.58155,17.07939 h -9.08389 l -7.99549,-16.03286 q -3.09773,-6.27918 -6.02802,-8.33038 -2.88843,-2.0512 -7.911775,-2.0512 h -9.209472 v 26.41444 h -8.45597 v -62.49883 h 19.088724 q 10.716473,0 15.990993,4.47915 5.27452,4.47916 5.27452,13.52118 0,5.90244 -2.76285,9.79553 -2.72098,3.8931 -7.95363,5.4001 z M 86.851653,199.14695 v 22.18645 h 10.632754 q 6.111743,0 9.209473,-2.8047 3.13959,-2.84656 3.13959,-8.33039 0,-5.48382 -3.13959,-8.24666 -3.09773,-2.8047 -9.209473,-2.8047 z"
         style="fill:#363636;fill-opacity:1;stroke:#363636;stroke-width:2.14329505px;stroke-opacity:1"
         id="path2435-5-7" />
    </g>
    <rect
       style="fill:#68826f;fill-opacity:1;stroke:#363636;stroke-width:0.23893635;stroke-miterlimit:4;stroke-dasharray:none;stroke-dashoffset:0;stroke-opacity:1"
       id="rect836-25-51-84-3"
       width="13.162952"
       height="70.432487"
       x="-1236.1072"
       y="930.62897"
       ry="0"
       transform="matrix(0.73974405,0.67288836,-0.64333152,0.76558772,0,0)" />
    <rect
       style="fill:#68826f;fill-opacity:1;stroke:#363636;stroke-width:0.23893586;stroke-miterlimit:4;stroke-dasharray:none;stroke-dashoffset:0;stroke-opacity:1"
       id="rect836-2-1-3-5-6"
       width="13.237547"
       height="70.035309"
       x="-1003.0204"
       y="-1244.8093"
       ry="0"
       transform="matrix(0.63625735,-0.77147689,0.74597606,0.66597276,0,0)" />
    <rect
       style="fill:#68826f;fill-opacity:1;stroke:#363636;stroke-width:0.23893724;stroke-miterlimit:4;stroke-dasharray:none;stroke-dashoffset:0;stroke-opacity:1"
       id="rect836-27-1-50-08-7"
       width="13.174144"
       height="70.373184"
       x="1090.9734"
       y="-988.39771"
       ry="0"
       transform="matrix(-0.72505401,-0.68869201,0.65955612,-0.75165533,0,0)" />
    <rect
       style="fill:#68826f;fill-opacity:1;stroke:#363636;stroke-width:0.2389369;stroke-miterlimit:4;stroke-dasharray:none;stroke-dashoffset:0;stroke-opacity:1"
       id="rect836-2-3-1-9-2-2"
       width="13.226434"
       height="70.094757"
       x="908.04993"
       y="1112.1663"
       ry="0"
       transform="matrix(-0.65259787,0.75770444,-0.7314229,-0.68192415,0,0)" />
    <g
       aria-label="R"
       transform="matrix(1.0476126,0,0,0.95455131,-1581.1354,-276.94833)"
       style="font-style:normal;font-weight:normal;font-size:85.73181152px;line-height:125%;font-family:sans-serif;letter-spacing:0px;word-spacing:0px;fill:#363636;fill-opacity:1;stroke:#363636;stroke-width:2.14329505px;stroke-linecap:butt;stroke-linejoin:miter;stroke-opacity:1"
       id="text958-1-6-7">
      <path
         inkscape:connector-curvature="0"
         d="m 108.03344,225.39394 q 2.72098,0.92095 5.27451,3.93496 2.5954,3.01401 5.1908,8.28852 l 8.58155,17.07939 h -9.08389 l -7.99549,-16.03286 q -3.09773,-6.27918 -6.02802,-8.33038 -2.88843,-2.0512 -7.911775,-2.0512 h -9.209472 v 26.41444 h -8.45597 v -62.49883 h 19.088724 q 10.716473,0 15.990993,4.47915 5.27452,4.47916 5.27452,13.52118 0,5.90244 -2.76285,9.79553 -2.72098,3.8931 -7.95363,5.4001 z M 86.851653,199.14695 v 22.18645 h 10.632754 q 6.111743,0 9.209473,-2.8047 3.13959,-2.84656 3.13959,-8.33039 0,-5.48382 -3.13959,-8.24666 -3.09773,-2.8047 -9.209473,-2.8047 z"
         style="fill:#363636;fill-opacity:1;stroke:#363636;stroke-width:2.14329505px;stroke-opacity:1"
         id="path2435-5-7-5" />
    </g>
    <rect
       style="fill:#000000;fill-opacity:0.93467335;stroke:#363636;stroke-width:0.30000001;stroke-miterlimit:4;stroke-dasharray:none;stroke-dashoffset:0;stroke-opacity:1"
       id="rect4306"
       width="394.60715"
       height="2.2678571"
       x="-1486.5544"
       y="-216.25253" />
  </g>
</svg>
